<svg xmlns="http://www.w3.org/2000/svg" viewBox="0 0 640 480" role="img" aria-labelledby="title desc">
  <title id="title">Blind Box Ticket</title>
  <desc id="desc">Prize box illustration for points mall blind box tickets.</desc>
  <rect width="640" height="480" fill="#f0f9ff"/>
  <rect x="170" y="166" width="300" height="210" rx="24" fill="#0f766e"/>
  <path d="M170 226h300v48H170z" fill="#14b8a6"/>
  <path d="M294 166h52v210h-52z" fill="#fde68a"/>
  <path d="M222 122c54-34 88 8 98 44-44 8-86 2-98-44z" fill="#f59e0b"/>
  <path d="M418 122c-54-34-88 8-98 44 44 8 86 2 98-44z" fill="#f59e0b"/>
  <circle cx="320" cy="250" r="46" fill="#ecfeff"/>
  <path d="M320 218c22 0 38 12 38 32 0 16-8 25-22 34-8 5-10 9-10 20h-24c0-20 7-31 21-40 9-6 13-10 13-18 0-7-6-12-16-12-11 0-18 6-22 16l-24-8c8-16 23-24 46-24zm-17 104h31v30h-31z" fill="#0f766e"/>
</svg>
